<svg width="35" height="35" viewBox="0 0 35 35" fill="none" xmlns="http://www.w3.org/2000/svg">
<rect width="35" height="35" fill="white"/>
<rect width="35" height="35" fill="white"/>
<path d="M7.29169 16.0417H27.7084V23.7084C27.7084 25.594 27.7084 26.5368 27.1226 27.1226C26.5368 27.7084 25.594 27.7084 23.7084 27.7084H11.2917C9.40607 27.7084 8.46326 27.7084 7.87747 27.1226C7.29169 26.5368 7.29169 25.594 7.29169 23.7084V16.0417Z" fill="#222222"/>
<path d="M3.73199 11.0236L7.29169 14.5833L13.125 8.74992L9.33871 6.22571C8.98593 5.99053 8.52319 6.00337 8.18401 6.25776L3.83909 9.51645C3.35226 9.88158 3.30168 10.5932 3.73199 11.0236Z" fill="#222222"/>
<path d="M31.268 11.0236L27.7083 14.5833L21.875 8.74992L25.6613 6.22571C26.0141 5.99053 26.4768 6.00337 26.816 6.25776L31.1609 9.51645C31.6477 9.88158 31.6983 10.5932 31.268 11.0236Z" fill="#222222"/>
<path d="M26.25 14.5833V16.0416H8.75V14.5833L13.125 10.2083H21.875L26.25 14.5833Z" stroke="#222222" stroke-width="2" stroke-linecap="round"/>
</svg>
