<svg width="34" height="34" viewBox="0 0 34 34" fill="none" xmlns="http://www.w3.org/2000/svg">
<rect x="0.497803" y="0.5" width="33.0022" height="33.0024" rx="9.5" stroke="black" stroke-opacity="0.4"/>
<path d="M18.9989 17V24.88C19.0389 25.18 18.9389 25.5 18.7089 25.71C18.6164 25.8027 18.5065 25.8762 18.3855 25.9264C18.2646 25.9766 18.1349 26.0024 18.0039 26.0024C17.8729 26.0024 17.7433 25.9766 17.6223 25.9264C17.5013 25.8762 17.3914 25.8027 17.2989 25.71L15.2889 23.7C15.1799 23.5933 15.097 23.4629 15.0467 23.319C14.9964 23.175 14.9801 23.0213 14.9989 22.87V17H14.9689L9.20891 9.62C9.04652 9.41153 8.97324 9.14726 9.0051 8.88493C9.03695 8.6226 9.17135 8.38355 9.37891 8.22C9.56891 8.08 9.77891 8 9.99891 8H23.9989C24.2189 8 24.4289 8.08 24.6189 8.22C24.8265 8.38355 24.9609 8.6226 24.9927 8.88493C25.0246 9.14726 24.9513 9.41153 24.7889 9.62L19.0289 17H18.9989Z" fill="black" fill-opacity="0.4"/>
</svg>
