<svg width="66" height="30" viewBox="0 0 66 30" fill="none" xmlns="http://www.w3.org/2000/svg">
<path d="M22.75 23.4375V12.1875C22.75 11.7917 22.8387 11.4167 23.0162 11.0625C23.1937 10.7083 23.4383 10.4167 23.75 10.1875L31.25 4.5625C31.6875 4.22917 32.1875 4.0625 32.75 4.0625C33.3125 4.0625 33.8125 4.22917 34.25 4.5625L41.75 10.1875C42.0625 10.4167 42.3075 10.7083 42.485 11.0625C42.6625 11.4167 42.7508 11.7917 42.75 12.1875V23.4375C42.75 24.125 42.505 24.7138 42.015 25.2038C41.525 25.6938 40.9367 25.9383 40.25 25.9375H36.5C36.1458 25.9375 35.8492 25.8175 35.61 25.5775C35.3708 25.3375 35.2508 25.0408 35.25 24.6875V18.4375C35.25 18.0833 35.13 17.7867 34.89 17.5475C34.65 17.3083 34.3533 17.1883 34 17.1875H31.5C31.1458 17.1875 30.8492 17.3075 30.61 17.5475C30.3708 17.7875 30.2508 18.0842 30.25 18.4375V24.6875C30.25 25.0417 30.13 25.3387 29.89 25.5787C29.65 25.8187 29.3533 25.9383 29 25.9375H25.25C24.5625 25.9375 23.9742 25.6929 23.485 25.2038C22.9958 24.7146 22.7508 24.1258 22.75 23.4375Z" fill="black"/>
</svg>
