<svg width="36" height="36" viewBox="0 0 36 36" fill="none" xmlns="http://www.w3.org/2000/svg">
<g clip-path="url(#clip0_1599_266)">
<path d="M17 3.75L20 6.75H32C32.7956 6.75 33.5587 7.06607 34.1213 7.62868C34.6839 8.19129 35 8.95435 35 9.75V15C33.845 14.52 32.585 14.25 31.25 14.25C28.6641 14.25 26.1842 15.2772 24.3557 17.1057C22.5272 18.9342 21.5 21.4141 21.5 24C21.5 25.335 21.77 26.595 22.25 27.75H8C7.20435 27.75 6.44129 27.4339 5.87868 26.8713C5.31607 26.3087 5 25.5456 5 24.75V6.75C5 5.085 6.335 3.75 8 3.75H17ZM30.5 15.75V18C32.0913 18 33.6174 18.6321 34.7426 19.7574C35.8679 20.8826 36.5 22.4087 36.5 24C36.5 25.23 36.125 26.37 35.495 27.315L33.86 25.68C34.115 25.17 34.25 24.6 34.25 24C34.25 23.0054 33.8549 22.0516 33.1516 21.3484C32.4484 20.6451 31.4946 20.25 30.5 20.25V22.5L27.125 19.125L30.5 15.75ZM30.5 32.25V30C28.9087 30 27.3826 29.3679 26.2574 28.2426C25.1321 27.1174 24.5 25.5913 24.5 24C24.5 22.77 24.875 21.63 25.505 20.685L27.14 22.32C26.885 22.83 26.75 23.4 26.75 24C26.75 24.9946 27.1451 25.9484 27.8484 26.6516C28.5516 27.3549 29.5054 27.75 30.5 27.75V25.5L33.875 28.875L30.5 32.25Z" fill="black"/>
</g>
<defs>
<clipPath id="clip0_1599_266">
<rect width="36" height="36" fill="white"/>
</clipPath>
</defs>
</svg>
