<svg width="66" height="32" viewBox="0 0 66 32" fill="none" xmlns="http://www.w3.org/2000/svg">
<path fill-rule="evenodd" clip-rule="evenodd" d="M23.9271 11.0754C23.9271 8.73537 24.8566 6.49123 26.5113 4.83661C28.1659 3.182 30.41 2.25244 32.75 2.25244C35.09 2.25244 37.3341 3.182 38.9887 4.83661C40.6434 6.49123 41.5729 8.73537 41.5729 11.0754V15.8196L43.8694 20.4125C43.9751 20.6239 44.025 20.8588 44.0144 21.0949C44.0038 21.3311 43.933 21.5605 43.8087 21.7616C43.6844 21.9627 43.5108 22.1286 43.3044 22.2437C43.0979 22.3588 42.8655 22.4191 42.6291 22.4191H37.6329C37.3525 23.5008 36.7209 24.4589 35.8371 25.1428C34.9533 25.8267 33.8675 26.1978 32.75 26.1978C31.6325 26.1978 30.5467 25.8267 29.6629 25.1428C28.7791 24.4589 28.1475 23.5008 27.8671 22.4191H22.8709C22.6345 22.4191 22.4021 22.3588 22.1956 22.2437C21.9892 22.1286 21.8156 21.9627 21.6913 21.7616C21.567 21.5605 21.4962 21.3311 21.4856 21.0949C21.475 20.8588 21.5249 20.6239 21.6306 20.4125L23.9271 15.8196V11.0754ZM30.567 22.4191C30.7882 22.8023 31.1064 23.1205 31.4896 23.3417C31.8728 23.5629 32.3075 23.6794 32.75 23.6794C33.1925 23.6794 33.6272 23.5629 34.0104 23.3417C34.3936 23.1205 34.7118 22.8023 34.933 22.4191H30.567ZM32.75 4.77327C31.0786 4.77327 29.4756 5.43724 28.2938 6.61911C27.1119 7.80098 26.4479 9.40394 26.4479 11.0754V15.8196C26.4479 16.2107 26.3568 16.5965 26.182 16.9464L24.7073 19.8983H40.794L39.3193 16.9464C39.144 16.5966 39.0525 16.2108 39.0521 15.8196V11.0754C39.0521 9.40394 38.3881 7.80098 37.2062 6.61911C36.0244 5.43724 34.4214 4.77327 32.75 4.77327Z" fill="black"/>
</svg>
