<svg width="66" height="32" viewBox="0 0 66 32" fill="none" xmlns="http://www.w3.org/2000/svg">
<path d="M43.375 28.6562H23.125C22.7893 28.6562 22.4674 28.5229 22.2301 28.2856C21.9927 28.0482 21.8594 27.7263 21.8594 27.3906V4.60938C21.8594 4.27371 21.9927 3.95179 22.2301 3.71444C22.4674 3.47709 22.7893 3.34375 23.125 3.34375H43.375C43.7107 3.34375 44.0326 3.47709 44.2699 3.71444C44.5073 3.95179 44.6406 4.27371 44.6406 4.60938V27.3906C44.6406 27.7263 44.5073 28.0482 44.2699 28.2856C44.0326 28.5229 43.7107 28.6562 43.375 28.6562ZM42.1094 26.125V5.875H24.3906V26.125H42.1094ZM28.1875 9.67188H38.3125V12.2031H28.1875V9.67188ZM28.1875 14.7344H38.3125V17.2656H28.1875V14.7344ZM28.1875 19.7969H38.3125V22.3281H28.1875V19.7969Z" fill="black"/>
</svg>
